<svg width="132" height="42" viewBox="0 0 132 42" fill="none" xmlns="http://www.w3.org/2000/svg">
<g id="logov-2 1">
<g id="Group">
<path id="Vector" d="M119.094 19.3883C118.899 19.5253 118.783 19.7494 118.783 19.9901V26.033C118.783 26.4397 119.111 26.7676 119.517 26.7676C119.924 26.7676 120.252 26.4397 120.252 26.033V20.3719L126.672 15.8771C126.892 15.9892 127.137 16.0556 127.403 16.0556C128.274 16.0556 128.98 15.3501 128.98 14.4785C128.98 13.6069 128.274 12.9014 127.403 12.9014C126.531 12.9014 125.826 13.6069 125.826 14.4785C125.826 14.5449 125.83 14.6071 125.838 14.6736L119.098 19.3925L119.094 19.3883Z" fill="url(#paint0_linear_49_1120)"/>
<path id="Vector_2" d="M114.537 17.7825V23.8005C114.035 24.0661 113.694 24.589 113.694 25.1991C113.694 26.0707 114.4 26.7762 115.271 26.7762C116.143 26.7762 116.849 26.0707 116.849 25.1991C116.849 24.5932 116.504 24.0661 116.002 23.8005V18.1643L125.494 11.5197C125.689 11.3827 125.805 11.1586 125.805 10.9179V6.43138C125.805 6.02465 125.477 5.69678 125.07 5.69678C124.664 5.69678 124.336 6.02465 124.336 6.43138V10.536L114.844 17.1807C114.649 17.3177 114.533 17.5418 114.533 17.7825H114.537Z" fill="url(#paint1_linear_49_1120)"/>
<path id="Vector_3" d="M125.917 19.795L123.493 21.4924C123.161 21.7249 123.082 22.1814 123.315 22.5134C123.456 22.7168 123.684 22.8247 123.916 22.8247C124.062 22.8247 124.207 22.7832 124.335 22.6919L126.759 20.9944C127.091 20.762 127.17 20.3055 126.938 19.9734C126.705 19.6414 126.249 19.5626 125.917 19.795Z" fill="url(#paint2_linear_49_1120)"/>
<path id="Vector_4" d="M130.545 24.0617C130.308 23.7255 129.843 23.6425 129.503 23.8791L118.048 31.8975L106.593 23.8791C106.257 23.6425 105.788 23.7255 105.551 24.0617C105.315 24.402 105.398 24.8668 105.734 25.1034L116.741 32.8105L113.516 35.0683C113.296 34.9563 113.047 34.8899 112.781 34.8899C111.893 34.8899 111.175 35.6079 111.175 36.496C111.175 37.3842 111.893 38.1022 112.781 38.1022C113.669 38.1022 114.387 37.3842 114.387 36.496C114.387 36.4296 114.383 36.3591 114.375 36.2927L118.048 33.7236L121.721 36.2927C121.713 36.3591 121.709 36.4255 121.709 36.496C121.709 37.3842 122.427 38.1022 123.315 38.1022C124.203 38.1022 124.921 37.3842 124.921 36.496C124.921 35.6079 124.203 34.8899 123.315 34.8899C123.049 34.8899 122.8 34.9563 122.58 35.0683L119.355 32.8105L130.362 25.1034C130.698 24.8668 130.781 24.402 130.545 24.0617Z" fill="url(#paint3_linear_49_1120)"/>
<path id="Vector_5" d="M110.179 6.69282L112.603 4.99534C112.935 4.76292 113.013 4.30639 112.781 3.97436C112.64 3.77099 112.412 3.66309 112.179 3.66309C112.034 3.66309 111.889 3.70459 111.76 3.7959L109.336 5.49338C109.004 5.72579 108.925 6.18233 109.158 6.51436C109.39 6.84638 109.847 6.92524 110.179 6.69282Z" fill="url(#paint4_linear_49_1120)"/>
<path id="Vector_6" d="M120.094 4.28535V8.32361L110.602 14.9683C110.407 15.1052 110.291 15.3293 110.291 15.5701V20.0566C110.291 20.4633 110.619 20.7912 111.026 20.7912C111.432 20.7912 111.76 20.4633 111.76 20.0566V15.9519L121.252 9.30724C121.447 9.17028 121.563 8.94616 121.563 8.70544V4.28535C122.065 4.01973 122.406 3.49679 122.406 2.88669C122.406 2.01512 121.7 1.30957 120.829 1.30957C119.957 1.30957 119.252 2.01512 119.252 2.88669C119.252 3.49264 119.596 4.01973 120.098 4.28535H120.094Z" fill="url(#paint5_linear_49_1120)"/>
<path id="Vector_7" d="M108.697 13.5904C109.569 13.5904 110.275 12.8848 110.275 12.0132C110.275 11.9468 110.27 11.8846 110.262 11.8182L117.002 7.09927C117.197 6.96231 117.314 6.73819 117.314 6.49747V2.05248C117.314 1.64575 116.986 1.31787 116.579 1.31787C116.172 1.31787 115.844 1.64575 115.844 2.05248V6.11564L109.424 10.6146C109.204 10.5025 108.959 10.4361 108.693 10.4361C107.822 10.4361 107.116 11.1417 107.116 12.0132C107.116 12.8848 107.822 13.5904 108.693 13.5904H108.697Z" fill="url(#paint6_linear_49_1120)"/>
</g>
<g id="Group_2">
<path id="Vector_8" d="M26.8564 14.3829V7.48096H29.164C30.2099 7.48096 31.0441 7.78808 31.6625 8.40233C32.2851 9.01657 32.5963 9.85494 32.5963 10.9133C32.5963 11.9716 32.2851 12.8307 31.6584 13.4533C31.0317 14.0758 30.2016 14.3871 29.164 14.3871H26.8564V14.3829ZM29.1267 8.68455H28.2676V13.1793H29.1267C30.4672 13.1793 31.1396 12.424 31.1396 10.9133C31.1396 9.40255 30.4672 8.68455 29.1267 8.68455Z" fill="white"/>
<path id="Vector_9" d="M34.3022 8.67624C34.0532 8.67624 33.8581 8.60569 33.7212 8.46873C33.5842 8.33177 33.5137 8.145 33.5137 7.91673C33.5137 7.68847 33.5842 7.5017 33.7212 7.36474C33.8581 7.22778 34.0532 7.15723 34.3022 7.15723C34.5513 7.15723 34.738 7.22778 34.875 7.36474C35.0119 7.5017 35.0825 7.68847 35.0825 7.91673C35.0825 8.145 35.0119 8.33177 34.875 8.46873C34.738 8.60569 34.5471 8.67624 34.3022 8.67624ZM34.9829 9.3486V14.3871H33.6216V9.3486H34.9829Z" fill="white"/>
<path id="Vector_10" d="M38.1577 16.2589C37.5061 16.2589 36.9333 16.1552 36.4311 15.9518L36.7175 14.8769C37.1242 15.0429 37.5766 15.1217 38.0788 15.1217C38.4648 15.1217 38.7678 15.0429 38.9794 14.8852C39.1911 14.7274 39.299 14.4992 39.299 14.2045V13.9762C38.9877 14.0966 38.6806 14.1547 38.3735 14.1547C37.6347 14.1547 37.062 13.9513 36.6428 13.5405C36.2236 13.1296 36.0161 12.5527 36.0161 11.8098C36.0161 11.0212 36.261 10.3945 36.7466 9.92552C37.2322 9.46069 37.8755 9.22412 38.6806 9.22412C39.4028 9.22412 40.0627 9.35693 40.652 9.6184V14.0675C40.652 14.7565 40.4321 15.296 39.988 15.6779C39.5439 16.0638 38.9338 16.2548 38.1577 16.2548V16.2589ZM37.4065 11.6936C37.4065 12.1086 37.5102 12.4323 37.7177 12.6689C37.9253 12.9055 38.2158 13.0217 38.5893 13.0217C38.8259 13.0217 39.0624 12.9677 39.299 12.8557V10.4609C39.0707 10.3904 38.8632 10.353 38.6765 10.353C38.2739 10.353 37.9626 10.4734 37.7385 10.7182C37.5144 10.9631 37.4023 11.2868 37.4023 11.6936H37.4065Z" fill="white"/>
<path id="Vector_11" d="M42.644 8.67624C42.395 8.67624 42.1999 8.60569 42.063 8.46873C41.926 8.33177 41.8555 8.145 41.8555 7.91673C41.8555 7.68847 41.926 7.5017 42.063 7.36474C42.1999 7.22778 42.395 7.15723 42.644 7.15723C42.893 7.15723 43.0798 7.22778 43.2168 7.36474C43.3537 7.5017 43.4243 7.68847 43.4243 7.91673C43.4243 8.145 43.3537 8.33177 43.2168 8.46873C43.0798 8.60569 42.8889 8.67624 42.644 8.67624ZM43.3247 9.3486V14.3871H41.9634V9.3486H43.3247Z" fill="white"/>
<path id="Vector_12" d="M47.4255 14.412C47.1889 14.4701 46.9025 14.4992 46.5664 14.4992C45.3835 14.4992 44.79 13.8517 44.79 12.5568V10.4277H44.1177V9.34446H44.79V8.24878L46.1513 8.17822V9.34031H47.247V10.4235H46.1513V12.5319C46.1513 13.0922 46.3796 13.3703 46.832 13.3703C47.0104 13.3703 47.1848 13.3495 47.3549 13.3122L47.4255 14.4079V14.412Z" fill="white"/>
<path id="Vector_13" d="M52.111 14.0673C51.5466 14.3578 50.8286 14.5031 49.9611 14.5031C49.3095 14.5031 48.8074 14.3578 48.4587 14.0756C48.106 13.7892 47.9316 13.4157 47.9316 12.955C47.9316 12.4943 48.1143 12.0959 48.4753 11.822C48.8364 11.5439 49.3178 11.4028 49.9155 11.3986C50.1728 11.3986 50.4633 11.4235 50.7912 11.4775V11.2409C50.7912 10.6474 50.455 10.3528 49.7868 10.3528C49.3012 10.3528 48.8655 10.4316 48.4836 10.5893L48.2388 9.5227C48.7119 9.32349 49.2805 9.22803 49.9445 9.22803C50.6625 9.22803 51.2021 9.41064 51.5673 9.77172C51.9325 10.1328 52.1152 10.6516 52.1152 11.3281V14.0715L52.111 14.0673ZM50.0981 13.5236C50.3886 13.5236 50.6169 13.478 50.7871 13.3866V12.3325C50.5422 12.2785 50.3098 12.2536 50.0857 12.2536C49.5461 12.2536 49.2763 12.4694 49.2763 12.8928C49.2763 13.3161 49.5503 13.5236 50.094 13.5236H50.0981Z" fill="white"/>
<path id="Vector_14" d="M54.676 7.23584V12.5607C54.676 13.1044 54.8545 13.3783 55.2072 13.3783C55.311 13.3783 55.4065 13.37 55.4936 13.3493L55.5932 14.4242C55.3442 14.4781 55.1118 14.503 54.9043 14.503C53.8459 14.503 53.3188 13.8639 53.3188 12.5815V7.3147L54.6802 7.23584H54.676Z" fill="white"/>
<path id="Vector_15" d="M6.18789 25.7926C5.48234 26.1537 4.75603 26.3363 4.00897 26.3363C2.94234 26.3363 2.11228 26.0209 1.51048 25.3859C0.908686 24.7509 0.609863 23.9042 0.609863 22.8459C0.609863 21.7876 0.916987 20.8745 1.53538 20.2021C2.15378 19.5298 2.9963 19.1978 4.07123 19.1978C4.76848 19.1978 5.39103 19.3181 5.94302 19.5505L5.6276 20.7334C5.14616 20.5383 4.63567 20.4387 4.08783 20.4387C3.42378 20.4387 2.92159 20.6504 2.57711 21.0737C2.23679 21.497 2.06247 22.0864 2.06247 22.8459C2.06247 23.5556 2.23264 24.1076 2.57711 24.5019C2.91744 24.8961 3.41548 25.0954 4.06708 25.0954C4.34515 25.0954 4.62322 25.0622 4.90544 24.9957V23.4684H3.77241V22.3063H6.18789V25.7968V25.7926Z" fill="white"/>
<path id="Vector_16" d="M12.0153 23.6921C12.0153 24.4931 11.7953 25.1364 11.3554 25.6137C10.9155 26.0951 10.3178 26.3317 9.56246 26.3317C8.8071 26.3317 8.2053 26.091 7.76122 25.6054C7.31714 25.124 7.09717 24.4848 7.09717 23.6879C7.09717 22.8911 7.31714 22.2561 7.76122 21.7746C8.2053 21.2932 8.80295 21.0566 9.56246 21.0566C10.322 21.0566 10.9155 21.2974 11.3554 21.7746C11.7953 22.2561 12.0153 22.8911 12.0153 23.6879V23.6921ZM8.48337 23.6921C8.48337 24.1652 8.57883 24.5388 8.7656 24.8044C8.95236 25.0741 9.21798 25.207 9.55831 25.207C9.89863 25.207 10.1643 25.0741 10.3469 24.8044C10.5295 24.5346 10.6249 24.1652 10.6249 23.6921C10.6249 23.219 10.5336 22.8496 10.3469 22.584C10.1643 22.3183 9.89863 22.1855 9.55831 22.1855C9.21798 22.1855 8.95236 22.3183 8.7656 22.5881C8.57883 22.8579 8.48337 23.2273 8.48337 23.6921Z" fill="white"/>
<path id="Vector_17" d="M12.625 21.1772H13.9946C14.0859 22.6257 14.4304 23.9372 15.0322 25.12C15.3393 24.5224 15.5842 23.9165 15.7585 23.3022C15.9328 22.688 16.0407 21.9783 16.0781 21.1772H17.4394C17.3398 22.165 17.1696 23.0241 16.9247 23.767C16.6799 24.5058 16.3022 25.3234 15.7917 26.2157H14.281C13.7414 25.3068 13.3472 24.4851 13.1023 23.7504C12.8574 23.0158 12.6956 22.1567 12.625 21.1772Z" fill="white"/>
<path id="Vector_18" d="M22.37 25.9997C21.8762 26.2238 21.3034 26.3358 20.6435 26.3358C19.8425 26.3358 19.195 26.0993 18.7053 25.622C18.2156 25.1447 17.9707 24.5014 17.9707 23.6921C17.9707 22.8828 18.199 22.2768 18.6514 21.7871C19.1037 21.3015 19.6931 21.0566 20.4152 21.0566C21.0585 21.0566 21.5773 21.2642 21.9675 21.6792C22.3576 22.0942 22.5527 22.6338 22.5527 23.2978C22.5527 23.5344 22.5402 23.7834 22.5112 24.049H19.3943C19.5188 24.8127 19.9795 25.1945 20.7763 25.1945C21.237 25.1945 21.6935 25.0991 22.1459 24.9081L22.3617 26.0038L22.37 25.9997ZM20.4194 22.144C20.1372 22.144 19.9048 22.2395 19.7221 22.4304C19.5395 22.6213 19.4275 22.8828 19.3818 23.219H21.2536V23.0986C21.2536 22.8164 21.1789 22.584 21.0336 22.4096C20.8842 22.2312 20.6809 22.144 20.4152 22.144H20.4194Z" fill="white"/>
<path id="Vector_19" d="M23.5903 21.4924C24.1672 21.2019 24.8603 21.0566 25.6613 21.0566C26.0141 21.0566 26.3129 21.0857 26.5495 21.1438L26.3544 22.2561C26.205 22.2021 26.01 22.1772 25.7734 22.1772C25.4663 22.1772 25.1924 22.2353 24.9558 22.3432V26.2072H23.5945V21.4841L23.5903 21.4924Z" fill="white"/>
<path id="Vector_20" d="M28.6699 26.2194H27.3169V21.4963C27.9934 21.2058 28.7363 21.0605 29.5456 21.0605C30.2678 21.0605 30.8281 21.2349 31.2223 21.5835C31.6166 21.9321 31.8158 22.4302 31.8158 23.0818V26.2194H30.4545V23.1814C30.4545 22.5173 30.1474 22.1853 29.5373 22.1853C29.2136 22.1853 28.9272 22.2434 28.6699 22.3637V26.2194Z" fill="white"/>
<path id="Vector_21" d="M34.4101 22.3637V26.2194H33.0571V21.4963C33.7212 21.2058 34.4599 21.0605 35.2775 21.0605C35.8544 21.0605 36.3193 21.1934 36.6679 21.4631C37.2074 21.1934 37.7428 21.0605 38.2741 21.0605C38.9713 21.0605 39.5067 21.2349 39.8844 21.5876C40.2621 21.9404 40.453 22.4385 40.453 23.0818V26.2194H39.1V23.1814C39.1 22.5173 38.8053 22.1853 38.2118 22.1853C37.8839 22.1853 37.5768 22.2641 37.2946 22.4219C37.3735 22.6916 37.415 22.9987 37.415 23.3474V26.2152H36.0952V23.1772C36.0952 22.841 36.0246 22.592 35.8835 22.426C35.7424 22.26 35.5183 22.1811 35.207 22.1811C34.9289 22.1811 34.6633 22.2392 34.4101 22.3596V22.3637Z" fill="white"/>
<path id="Vector_22" d="M45.8276 25.9997C45.3337 26.2238 44.7609 26.3358 44.101 26.3358C43.3 26.3358 42.6526 26.0993 42.1628 25.622C41.6731 25.1447 41.4282 24.5014 41.4282 23.6921C41.4282 22.8828 41.6565 22.2768 42.1089 21.7871C42.5613 21.3015 43.1506 21.0566 43.8728 21.0566C44.5161 21.0566 45.0348 21.2642 45.425 21.6792C45.8151 22.0942 46.0102 22.6338 46.0102 23.2978C46.0102 23.5344 45.9977 23.7834 45.9687 24.049H42.8518C42.9763 24.8127 43.437 25.1945 44.2338 25.1945C44.6945 25.1945 45.1511 25.0991 45.6034 24.9081L45.8193 26.0038L45.8276 25.9997ZM43.8769 22.144C43.5947 22.144 43.3623 22.2395 43.1797 22.4304C42.997 22.6213 42.885 22.8828 42.8393 23.219H44.7111V23.0986C44.7111 22.8164 44.6364 22.584 44.4912 22.4096C44.3417 22.2312 44.1384 22.144 43.8728 22.144H43.8769Z" fill="white"/>
<path id="Vector_23" d="M48.3926 26.2194H47.0396V21.4963C47.7161 21.2058 48.459 21.0605 49.2683 21.0605C49.9904 21.0605 50.5507 21.2349 50.945 21.5835C51.3393 21.9321 51.5385 22.4302 51.5385 23.0818V26.2194H50.1772V23.1814C50.1772 22.5173 49.8701 22.1853 49.26 22.1853C48.9362 22.1853 48.6499 22.2434 48.3926 22.3637V26.2194Z" fill="white"/>
<path id="Vector_24" d="M55.5724 26.2484C55.3359 26.3065 55.0495 26.3356 54.7133 26.3356C53.5305 26.3356 52.937 25.6881 52.937 24.3932V22.2641H52.2646V21.1809H52.937V20.0852L54.2983 20.0146V21.1767H55.394V22.26H54.2983V24.3683C54.2983 24.9286 54.5266 25.2067 54.979 25.2067C55.1574 25.2067 55.3317 25.1859 55.5019 25.1486L55.5724 26.2443V26.2484Z" fill="white"/>
<path id="Vector_25" d="M18.2568 38.0519L17.8417 36.5329H15.2976C15.1606 36.9936 15.0195 37.4999 14.8825 38.0519H13.4341C14.2226 35.1674 15.0195 32.864 15.8288 31.1499H17.298C18.1322 32.9179 18.9333 35.2214 19.7052 38.0519H18.2568ZM16.5717 32.6482C16.3352 33.1628 16.028 34.0551 15.6462 35.3293H17.4889C17.0947 34.0095 16.7875 33.113 16.5717 32.6482Z" fill="white"/>
<path id="Vector_26" d="M24.9225 37.7367C24.2211 38.0273 23.4699 38.1725 22.6731 38.1725C21.8762 38.1725 21.3076 37.9899 20.9673 37.6247C20.627 37.2594 20.4526 36.7407 20.4526 36.06V33.0137H21.8056V36.06C21.8056 36.7158 22.1045 37.0478 22.7021 37.0478C23.0258 37.0478 23.3122 36.9897 23.5612 36.8693V33.0137H24.9225V37.7367Z" fill="white"/>
<path id="Vector_27" d="M29.006 38.0809C28.7695 38.1391 28.4831 38.1681 28.1469 38.1681C26.9641 38.1681 26.3706 37.5207 26.3706 36.2258V34.0966H25.6982V33.0134H26.3706V31.9177L27.7319 31.8472V33.0093H28.8276V34.0925H27.7319V36.205C27.7319 36.7653 27.9602 37.0434 28.4126 37.0434C28.591 37.0434 28.7653 37.0226 28.9355 36.9853L29.006 38.0809Z" fill="white"/>
<path id="Vector_28" d="M31.206 38.0519H29.8447V30.9714L31.206 30.9009V33.0881C31.4841 32.9553 31.8203 32.8889 32.2229 32.8889C32.8745 32.8889 33.3891 33.0632 33.7709 33.416C34.1528 33.7688 34.3437 34.2668 34.3437 34.9101V38.0477H32.9824V35.0221C32.9824 34.3581 32.6586 34.0261 32.007 34.0261C31.7373 34.0261 31.4716 34.0883 31.2102 34.2128V38.0477L31.206 38.0519Z" fill="white"/>
<path id="Vector_29" d="M40.237 35.5285C40.237 36.3295 40.017 36.9728 39.5771 37.4501C39.1371 37.9316 38.5395 38.1681 37.7841 38.1681C37.0288 38.1681 36.427 37.9274 35.9829 37.4418C35.5388 36.9562 35.3188 36.3171 35.3188 35.5244C35.3188 34.7317 35.5388 34.0925 35.9829 33.6111C36.427 33.1296 37.0246 32.8931 37.7841 32.8931C38.5436 32.8931 39.1371 33.1338 39.5771 33.6111C40.017 34.0925 40.237 34.7275 40.237 35.5244V35.5285ZM36.7051 35.5285C36.7051 36.0017 36.8005 36.3752 36.9873 36.6408C37.174 36.9106 37.4397 37.0434 37.78 37.0434C38.1203 37.0434 38.3859 36.9106 38.5685 36.6408C38.7512 36.371 38.8466 36.0017 38.8466 35.5285C38.8466 35.0554 38.7553 34.686 38.5685 34.4204C38.3859 34.1548 38.1203 34.022 37.78 34.022C37.4397 34.022 37.174 34.1548 36.9873 34.4245C36.8005 34.6943 36.7051 35.0637 36.7051 35.5285Z" fill="white"/>
<path id="Vector_30" d="M41.2744 33.3288C41.8513 33.0383 42.5444 32.8931 43.3454 32.8931C43.6982 32.8931 43.997 32.9221 44.2336 32.9802L44.0385 34.0925C43.8891 34.0386 43.6941 34.0137 43.4575 34.0137C43.1504 34.0137 42.8764 34.0676 42.6399 34.1797V38.0436H41.2786V33.3205L41.2744 33.3288Z" fill="white"/>
<path id="Vector_31" d="M45.6904 32.3413C45.4414 32.3413 45.2463 32.2707 45.1094 32.1338C44.9724 31.9968 44.9019 31.81 44.9019 31.5818C44.9019 31.3535 44.9724 31.1667 45.1094 31.0298C45.2463 30.8928 45.4414 30.8223 45.6904 30.8223C45.9394 30.8223 46.1262 30.8928 46.2632 31.0298C46.4001 31.1667 46.4707 31.3535 46.4707 31.5818C46.4707 31.81 46.4001 31.9968 46.2632 32.1338C46.1262 32.2707 45.9353 32.3413 45.6904 32.3413ZM46.3711 33.0136V38.0521H45.0098V33.0136H46.3711Z" fill="white"/>
<path id="Vector_32" d="M50.4719 38.0809C50.2353 38.1391 49.9489 38.1681 49.6128 38.1681C48.4299 38.1681 47.8364 37.5207 47.8364 36.2258V34.0966H47.1641V33.0134H47.8364V31.9177L49.1977 31.8472V33.0093H50.2934V34.0925H49.1977V36.205C49.1977 36.7653 49.426 37.0434 49.8784 37.0434C50.0568 37.0434 50.2311 37.0226 50.4013 36.9853L50.4719 38.0809Z" fill="white"/>
<path id="Vector_33" d="M54.1198 37.6166C53.3645 38.9447 52.4182 39.7001 51.281 39.8827L51.0652 38.7289C51.3682 38.6833 51.6711 38.5712 51.9783 38.3886C52.2854 38.206 52.5095 37.9943 52.6548 37.7536C52.1028 37.0024 51.6877 36.2595 51.4055 35.5249C51.1274 34.7903 50.949 33.9519 50.8784 33.0098H52.248C52.302 34.3296 52.6714 35.5664 53.3603 36.716C53.6218 36.1557 53.821 35.6037 53.9455 35.0559C54.0742 34.508 54.1572 33.8232 54.1987 33.0098H55.5517C55.4313 34.5993 54.9582 36.135 54.124 37.6166H54.1198Z" fill="white"/>
</g>
<g id="Group_3">
<path id="Vector_34" d="M66.0277 14.442H65.5131C64.7702 14.442 64.2763 14.1847 64.0356 13.6742C63.7077 13.7116 63.4047 13.7323 63.1267 13.7323C62.4502 13.7323 61.9148 13.6078 61.5246 13.3588C61.1345 13.1098 60.9395 12.7321 60.9395 12.2257C60.9395 11.6406 61.1262 11.1218 61.4997 10.6735C61.8733 10.2253 62.3589 9.88496 62.9607 9.66085C63.5583 9.43673 64.2182 9.32467 64.9321 9.32467V12.2133C64.9321 12.5287 65.0026 12.7445 65.1437 12.8524C65.2848 12.9645 65.538 13.0185 65.9074 13.0185H66.0277V14.4379V14.442ZM63.3674 12.4914C63.5625 12.4914 63.716 12.4831 63.8198 12.4706V10.6777C63.2761 10.7482 62.832 10.9101 62.4917 11.1591C62.1513 11.4081 61.9853 11.6572 61.9853 11.8979C61.9853 12.068 62.1057 12.2091 62.3423 12.3212C62.5788 12.4333 62.9192 12.4872 63.3674 12.4872V12.4914ZM64.2265 8.74363L63.4379 8.08373L62.8278 8.77268L61.9978 8.08373L62.6867 7.28686L63.4753 7.96752L64.0854 7.25781L64.9155 7.96752L64.2265 8.74778V8.74363Z" fill="white"/>
<path id="Vector_35" d="M66.0273 14.4424C65.9402 14.4424 65.8696 14.3718 65.8074 14.2348C65.7451 14.0979 65.7119 13.9277 65.7119 13.7327C65.7119 13.5376 65.7451 13.3674 65.8074 13.2305C65.8696 13.0935 65.9443 13.0229 66.0273 13.0229H68.3847V14.4424H66.0273Z" fill="white"/>
<path id="Vector_36" d="M68.3853 14.4424C68.2981 14.4424 68.2275 14.3718 68.1653 14.2348C68.103 14.0979 68.0698 13.9277 68.0698 13.7327C68.0698 13.5376 68.103 13.3674 68.1653 13.2305C68.2275 13.0935 68.3022 13.0229 68.3853 13.0229H70.7426V14.4424H68.3853Z" fill="white"/>
<path id="Vector_37" d="M70.7427 14.442C70.6555 14.442 70.585 14.3715 70.5227 14.2345C70.4604 14.0975 70.4272 13.9274 70.4272 13.7323C70.4272 13.5373 70.4604 13.3671 70.5227 13.2301C70.585 13.0932 70.6597 13.0226 70.7427 13.0226H70.8921C71.4233 13.0226 71.7761 12.9521 71.9504 12.8151C72.1247 12.6781 72.2119 12.4748 72.2119 12.2133V10.8312L73.3947 10.7441V12.0846C73.3947 12.3669 73.374 12.6242 73.3366 12.8525C73.6935 12.9645 74.121 13.0185 74.6191 13.0185H74.6772V14.4379H74.4115C73.6935 14.4379 73.1291 14.2885 72.7141 13.9855C72.3447 14.2885 71.7802 14.4379 71.0166 14.4379H70.7385L70.7427 14.442ZM73.4445 9.89743C72.7224 10.0219 71.9961 10.2253 71.2656 10.5075L71.0788 9.92648C71.3569 9.80612 71.5686 9.72311 71.718 9.66916C71.4607 9.4907 71.332 9.22508 71.332 8.8723C71.332 8.56932 71.4316 8.32861 71.6308 8.15429C71.8301 7.97583 72.0749 7.88867 72.3654 7.88867C72.656 7.88867 72.9091 7.95508 73.1748 8.08374L72.9672 8.63573C72.7763 8.57763 72.5979 8.54857 72.436 8.54857C72.2907 8.54857 72.1745 8.58178 72.0791 8.64818C71.9878 8.71459 71.9421 8.80589 71.9421 8.92625C71.9421 9.05906 71.9878 9.17112 72.0791 9.26658C72.1704 9.36204 72.3073 9.40769 72.4817 9.40769C72.6269 9.40769 72.905 9.36619 73.32 9.27903L73.4404 9.90158L73.4445 9.89743Z" fill="white"/>
<path id="Vector_38" d="M74.6768 14.4424C74.5896 14.4424 74.519 14.3718 74.4568 14.2348C74.3945 14.0979 74.3613 13.9277 74.3613 13.7327C74.3613 13.5376 74.3945 13.3674 74.4568 13.2305C74.519 13.0935 74.5937 13.0229 74.6768 13.0229H77.0341V14.4424H74.6768Z" fill="white"/>
<path id="Vector_39" d="M77.0342 14.4424C76.947 14.4424 76.8765 14.3718 76.8142 14.2348C76.752 14.0979 76.7188 13.9277 76.7188 13.7327C76.7188 13.5376 76.752 13.3674 76.8142 13.2305C76.8765 13.0935 76.9512 13.0229 77.0342 13.0229H79.3915V14.4424H77.0342Z" fill="white"/>
<path id="Vector_40" d="M81.1677 16.6998L80.3791 16.0399L79.769 16.7289L78.939 16.0399L79.6279 15.2431L80.4165 15.9237L81.0266 15.214L81.8566 15.9237L81.1677 16.704V16.6998ZM79.3913 14.4421C79.3042 14.4421 79.2336 14.3715 79.1714 14.2346C79.1091 14.0976 79.0759 13.9274 79.0759 13.7324C79.0759 13.5373 79.1091 13.3671 79.1714 13.2302C79.2336 13.0932 79.3083 13.0227 79.3913 13.0227H79.5408C80.072 13.0227 80.4248 12.9521 80.5991 12.8151C80.7734 12.6782 80.8606 12.4748 80.8606 12.2134V10.8313L82.0434 10.7441V12.0847C82.0434 12.3669 82.0227 12.6242 81.9853 12.8525C82.3422 12.9646 82.7697 13.0185 83.2678 13.0185H83.3259V14.4379H83.0602C82.3422 14.4379 81.7778 14.2885 81.3627 13.9855C80.9934 14.2885 80.4289 14.4379 79.6653 14.4379H79.3872L79.3913 14.4421Z" fill="white"/>
<path id="Vector_41" d="M83.3262 14.4424C83.239 14.4424 83.1685 14.3718 83.1062 14.2348C83.0439 14.0979 83.0107 13.9277 83.0107 13.7327C83.0107 13.5376 83.0439 13.3674 83.1062 13.2305C83.1685 13.0935 83.2432 13.0229 83.3262 13.0229H85.6835V14.4424H83.3262Z" fill="white"/>
<path id="Vector_42" d="M85.6831 14.4424C85.5959 14.4424 85.5254 14.3718 85.4631 14.2348C85.4009 14.0979 85.3677 13.9277 85.3677 13.7327C85.3677 13.5376 85.4009 13.3674 85.4631 13.2305C85.5254 13.0935 85.6001 13.0229 85.6831 13.0229H88.0405V14.4424H85.6831Z" fill="white"/>
<path id="Vector_43" d="M88.0405 14.4424C87.9534 14.4424 87.8828 14.3718 87.8206 14.2348C87.7583 14.0979 87.7251 13.9277 87.7251 13.7327C87.7251 13.5376 87.7583 13.3674 87.8206 13.2305C87.8828 13.0935 87.9575 13.0229 88.0405 13.0229H90.3979V14.4424H88.0405Z" fill="white"/>
<path id="Vector_44" d="M95.2585 14.7575C94.3495 14.7575 93.478 14.5292 92.6355 14.0685C92.0835 14.3175 91.4194 14.4421 90.6433 14.4421H90.3984C90.3113 14.4421 90.2407 14.3715 90.1785 14.2345C90.1162 14.0976 90.083 13.9274 90.083 13.7323C90.083 13.5373 90.1162 13.3671 90.1785 13.2302C90.2407 13.0932 90.3154 13.0226 90.3984 13.0226H90.5271C90.8176 13.0226 91.1164 13.006 91.4236 12.9728C91.2575 12.6823 91.1787 12.3793 91.1787 12.0556C91.1787 11.1758 91.6145 10.2834 92.4902 9.38281C93.6066 9.59863 94.5446 10.0469 95.3041 10.7192C96.0636 11.3916 96.4413 12.1677 96.4413 13.0434C96.4413 14.1889 96.047 14.7575 95.2585 14.7575ZM92.1623 11.8107C92.1623 12.1594 92.3615 12.4582 92.7558 12.7072C93.038 12.5578 93.2538 12.3918 93.395 12.2133C93.5402 12.0349 93.6108 11.873 93.6108 11.7319C93.6108 11.2505 93.2746 10.9267 92.6064 10.7566C92.3117 11.1176 92.1623 11.4704 92.1623 11.8107ZM95.1215 13.5373C95.3041 13.5373 95.3996 13.4501 95.3996 13.28C95.3996 12.6823 95.1049 12.122 94.5114 11.6032V11.6115C94.5114 12.1843 94.2707 12.7197 93.7934 13.2177C94.3661 13.4294 94.8102 13.5331 95.1256 13.5331L95.1215 13.5373Z" fill="white"/>
<path id="Vector_45" d="M65.953 26.2745H65.4384C64.6955 26.2745 64.2016 26.0172 63.9609 25.5067C63.633 25.5441 63.33 25.5648 63.052 25.5648C62.3755 25.5648 61.8401 25.4403 61.4499 25.1913C61.0598 24.9423 60.8647 24.5646 60.8647 24.0583C60.8647 23.4731 61.0515 22.9543 61.425 22.506C61.7986 22.0578 62.2842 21.7175 62.886 21.4934C63.4836 21.2692 64.1435 21.1572 64.8574 21.1572V24.0458C64.8574 24.3612 64.9279 24.5771 65.069 24.685C65.2101 24.797 65.4633 24.851 65.8327 24.851H65.953V26.2704V26.2745ZM63.2927 24.3239C63.4878 24.3239 63.6413 24.3156 63.7451 24.3031V22.5102C63.2014 22.5808 62.7573 22.7426 62.417 22.9916C62.0766 23.2407 61.9106 23.4897 61.9106 23.7304C61.9106 23.9006 62.031 24.0417 62.2676 24.1537C62.5041 24.2658 62.8445 24.3197 63.2927 24.3197V24.3239ZM64.1518 20.5761L63.3632 19.9162L62.7531 20.6052L61.9231 19.9162L62.612 19.1194L63.4006 19.8L64.0107 19.0903L64.8408 19.8L64.1518 20.5803V20.5761Z" fill="white"/>
<path id="Vector_46" d="M65.9526 26.2749C65.8655 26.2749 65.7949 26.2043 65.7327 26.0674C65.6704 25.9304 65.6372 25.7602 65.6372 25.5652C65.6372 25.3701 65.6704 25.1999 65.7327 25.063C65.7949 24.926 65.8696 24.8555 65.9526 24.8555H68.31V26.2749H65.9526Z" fill="white"/>
<path id="Vector_47" d="M71.6428 26.2831C70.8542 26.2831 70.1735 26.1171 69.6008 25.7892C69.2771 26.113 68.8745 26.2707 68.3889 26.2707H68.3101C68.2229 26.2707 68.1523 26.2001 68.0901 26.0632C68.0278 25.9262 67.9946 25.756 67.9946 25.561C67.9946 25.3659 68.0278 25.1957 68.0901 25.0588C68.1523 24.9218 68.227 24.8513 68.3101 24.8513H68.4761C68.7251 24.8513 68.9284 24.76 69.082 24.5732C69.2356 24.3864 69.414 24.0918 69.6216 23.6767C69.634 23.6518 69.6465 23.6311 69.6506 23.6186C69.6548 23.6062 69.6672 23.5896 69.6755 23.5688C69.6838 23.5481 69.6921 23.5315 69.7004 23.5107C69.9577 23.0168 70.2316 22.6433 70.5222 22.386C70.8127 22.1287 71.2153 22 71.7216 22C72.2819 22 72.7343 22.22 73.0829 22.6599C73.4315 23.0998 73.6059 23.6435 73.6059 24.2868C73.6059 24.9301 73.4938 25.5444 73.2697 26.0632C72.8546 26.2084 72.3151 26.279 71.6428 26.279V26.2831ZM71.871 24.9799C72.0744 24.9799 72.2736 24.9716 72.4728 24.9509C72.4977 24.7724 72.5102 24.6105 72.5102 24.457C72.5102 24.1167 72.4396 23.8344 72.2944 23.6145C72.1491 23.3945 71.9457 23.2824 71.6843 23.2824C71.4394 23.2824 71.236 23.3655 71.0617 23.5356C70.8916 23.7016 70.6757 24.0461 70.4101 24.5649C70.3645 24.6562 70.3396 24.7143 70.3313 24.7309C70.7587 24.8969 71.2734 24.9758 71.871 24.9758V24.9799Z" fill="white"/>
<path id="Vector_48" d="M75.6355 28.3624C75.2952 28.3624 74.9341 28.3126 74.5522 28.213L74.6726 27.0385C74.9216 27.0841 75.1872 27.109 75.4612 27.109C76.0381 27.109 76.4987 27.0053 76.8432 26.7936C77.1877 26.5819 77.4035 26.3454 77.5031 26.0839C77.2209 26.1171 76.8764 26.1337 76.478 26.1337C75.7683 26.1337 75.2702 25.9677 74.9839 25.6357C74.6975 25.3037 74.5564 24.8471 74.5564 24.2702C74.5564 23.5854 74.7432 23.0085 75.125 22.5354C75.5027 22.0623 75.98 21.8257 76.5485 21.8257C77.1711 21.8257 77.6857 22.0955 78.0925 22.635C78.495 23.1745 78.7109 23.9133 78.7275 24.8554H79.3002V26.2748H78.5698C78.1879 27.6693 77.2126 28.3666 75.6396 28.3666L75.6355 28.3624ZM76.8972 24.8513H77.6069C77.5861 24.4155 77.4782 24.0171 77.2749 23.6477C77.0756 23.2783 76.8059 23.0957 76.4697 23.0957C76.1916 23.0957 75.9841 23.1953 75.8388 23.3904C75.6936 23.5854 75.623 23.8095 75.623 24.0627C75.623 24.3159 75.7185 24.5151 75.9136 24.6479C76.1086 24.7807 76.4365 24.8513 76.893 24.8513H76.8972Z" fill="white"/>
<path id="Vector_49" d="M79.292 26.2748C79.2048 26.2748 79.1343 26.2042 79.072 26.0673C79.0098 25.9303 78.9766 25.7601 78.9766 25.5651C78.9766 25.37 79.0098 25.1998 79.072 25.0629C79.1343 24.9259 79.209 24.8554 79.292 24.8554H79.4788C80.591 24.8554 81.446 24.7516 82.0436 24.5399C81.7739 24.0917 81.4585 23.6974 81.0974 23.353C80.7363 23.0085 80.2424 22.7014 79.6199 22.4316V20.8254C80.894 19.9248 82.33 19.2898 83.9196 18.9204V20.2527C82.7243 20.5432 81.666 20.979 80.7529 21.5642C81.0766 21.7343 81.363 21.9211 81.6203 22.1203C81.8776 22.3195 82.1101 22.5436 82.3217 22.7927C82.5334 23.0375 82.6828 23.2284 82.7824 23.353C82.8779 23.4816 83.0107 23.6767 83.1808 23.9381C83.2057 23.9838 83.2597 24.0668 83.3344 24.183C83.4091 24.3034 83.4589 24.3781 83.488 24.4154C83.5129 24.4528 83.5585 24.5109 83.6249 24.5897C83.6913 24.6686 83.7494 24.7184 83.7992 24.7433C83.849 24.7682 83.9113 24.7931 83.986 24.818C84.0607 24.8429 84.1437 24.8554 84.2392 24.8554H84.3678V26.2748H84.2101C83.6 26.2748 83.1227 26.0797 82.7783 25.6937C81.9648 26.0797 80.8774 26.2748 79.5244 26.2748H79.2961H79.292Z" fill="white"/>
<path id="Vector_50" d="M84.3638 26.2751C84.2766 26.2751 84.2061 26.2045 84.1438 26.0676C84.0815 25.9306 84.0483 25.7604 84.0483 25.5654C84.0483 25.3703 84.0815 25.2001 84.1438 25.0632C84.2061 24.9262 84.2808 24.8557 84.3638 24.8557H84.7373C86.2771 24.8557 87.4973 24.7685 88.4062 24.5983C87.4142 23.6521 86.7377 23.1789 86.385 23.1789C86.2356 23.1789 86.1069 23.2121 86.0114 23.2827C85.916 23.3532 85.8081 23.4861 85.696 23.6811L84.8162 23.3449C85.0071 22.8386 85.2353 22.4734 85.4968 22.2451C85.7583 22.0168 86.0737 21.9048 86.4431 21.9048C86.9411 21.9048 87.5927 22.2534 88.3937 22.9507C88.5307 23.071 88.8835 23.3865 89.4479 23.9052C89.8837 24.3078 90.2157 24.5651 90.4481 24.6772C90.6805 24.7934 90.9918 24.8515 91.3778 24.8515H91.5272V26.2709H91.3197C90.9462 26.2709 90.6224 26.2211 90.3485 26.1257C90.0746 26.0302 89.7924 25.8642 89.4936 25.6276C87.9206 26.0551 86.2563 26.2668 84.4924 26.2668H84.3555L84.3638 26.2751Z" fill="white"/>
<path id="Vector_51" d="M91.5312 26.2753C91.4441 26.2753 91.3735 26.2047 91.3113 26.0678C91.249 25.9308 91.2158 25.7606 91.2158 25.5656C91.2158 25.3705 91.249 25.2003 91.3113 25.0634C91.3735 24.9264 91.4482 24.8559 91.5312 24.8559H91.6101C91.9961 24.8559 92.353 24.8185 92.6767 24.748C92.7016 24.3329 92.7141 23.8017 92.7141 23.1501C92.7141 22.208 92.7058 20.9048 92.685 19.2363L93.9467 19.1284C93.955 20.8591 93.955 22.1291 93.955 22.9467C93.955 23.6979 93.9384 24.279 93.9094 24.6981C93.8803 25.1173 93.8139 25.4909 93.706 25.8187C93.4777 25.9432 93.1623 26.0512 92.7597 26.1425C92.3572 26.2338 91.967 26.2794 91.5852 26.2794H91.5271L91.5312 26.2753Z" fill="white"/>
<path id="Vector_52" d="M96.3706 26.2745H95.1172V19.2314L96.3706 19.1235V26.2745Z" fill="white"/>
<path id="Vector_53" d="M66.1269 38.1071H65.6122C64.8693 38.1071 64.3754 37.8497 64.1347 37.3392C63.8068 37.3807 63.5039 37.3973 63.2258 37.3973C62.5493 37.3973 62.0139 37.2728 61.6238 37.0238C61.2336 36.7748 61.0386 36.3971 61.0386 35.8908C61.0386 35.3056 61.2253 34.7868 61.5989 34.3386C61.9724 33.8903 62.458 33.55 63.0598 33.3259C63.6616 33.1018 64.3173 32.9897 65.0312 32.9897V35.8783C65.0312 36.1938 65.1017 36.4096 65.2428 36.5175C65.384 36.6295 65.6371 36.6835 66.0065 36.6835H66.1269V38.1029V38.1071ZM63.4665 36.1564C63.6616 36.1564 63.8151 36.1481 63.9189 36.1357V34.3427C63.3752 34.4133 62.9311 34.5751 62.5908 34.8242C62.2505 35.0732 62.0844 35.3222 62.0844 35.5629C62.0844 35.7331 62.2048 35.8742 62.4414 35.9862C62.6779 36.0983 63.0183 36.1523 63.4665 36.1523V36.1564ZM64.3256 32.4087L63.5371 31.7488L62.927 32.4377L62.0969 31.7488L62.7859 30.9519L63.5744 31.6326L64.1845 30.9229L65.0146 31.6326L64.3256 32.4128V32.4087Z" fill="white"/>
<path id="Vector_54" d="M66.1269 38.1074C66.0398 38.1074 65.9692 38.0368 65.907 37.8999C65.8447 37.7629 65.8115 37.5928 65.8115 37.3977C65.8115 37.2026 65.8447 37.0325 65.907 36.8955C65.9692 36.7585 66.0439 36.688 66.1269 36.688H68.4843V38.1074H66.1269Z" fill="white"/>
<path id="Vector_55" d="M70.2609 40.3649L69.4724 39.705L68.8623 40.3939L68.0322 39.705L68.7212 38.9081L69.5097 39.5888L70.1198 38.8791L70.9499 39.5888L70.2609 40.369V40.3649ZM68.4846 38.1071C68.3975 38.1071 68.3269 38.0366 68.2646 37.8996C68.2024 37.7626 68.1692 37.5925 68.1692 37.3974C68.1692 37.2023 68.2024 37.0322 68.2646 36.8952C68.3269 36.7583 68.4016 36.6877 68.4846 36.6877H68.634C69.1653 36.6877 69.518 36.6171 69.6924 36.4802C69.8667 36.3432 69.9538 36.1399 69.9538 35.8784V34.4963L71.1367 34.4092V35.7497C71.1367 36.032 71.1159 36.2893 71.0786 36.5175C71.4355 36.6296 71.863 36.6836 72.361 36.6836H72.4191V38.103H72.1535C71.4355 38.103 70.871 37.9536 70.456 37.6506C70.0866 37.9536 69.5222 38.103 68.7585 38.103H68.4805L68.4846 38.1071Z" fill="white"/>
<path id="Vector_56" d="M72.4189 38.1074C72.3318 38.1074 72.2612 38.0368 72.199 37.8999C72.1367 37.7629 72.1035 37.5928 72.1035 37.3977C72.1035 37.2026 72.1367 37.0325 72.199 36.8955C72.2612 36.7585 72.3359 36.688 72.4189 36.688H74.7763V38.1074H72.4189Z" fill="white"/>
<path id="Vector_57" d="M80.9149 38.1071C80.3546 38.1071 79.9313 37.9826 79.6449 37.7336C79.1925 37.9909 78.6572 38.1196 78.0471 38.1196C77.2502 38.1196 76.5903 37.9618 76.0591 37.6464C75.7312 37.9535 75.3327 38.1113 74.8596 38.1113H74.7808C74.6936 38.1113 74.623 38.0407 74.5608 37.9037C74.4985 37.7668 74.4653 37.5966 74.4653 37.4016C74.4653 37.2065 74.4985 37.0363 74.5608 36.8994C74.623 36.7624 74.6977 36.6918 74.7808 36.6918H74.9468C75.0837 36.6918 75.2082 36.6669 75.312 36.6171C75.4158 36.5673 75.5195 36.476 75.6191 36.3474C75.7187 36.2146 75.7934 36.0983 75.8474 35.9987C75.9013 35.895 75.9843 35.7331 76.1006 35.5049C76.1047 35.4924 76.113 35.48 76.1213 35.4675C76.1296 35.455 76.1379 35.4343 76.1504 35.4135C76.1628 35.3928 76.1711 35.372 76.1794 35.3554C76.4367 34.8574 76.7107 34.4839 77.0012 34.2266C77.2917 33.9692 77.6901 33.8447 78.1882 33.8447C79.0971 33.8447 79.703 34.4839 80.0143 35.7663C80.1015 36.1482 80.2052 36.3972 80.3256 36.5175C80.4459 36.6379 80.6701 36.696 80.9896 36.696H81.2055V38.1154H80.9191L80.9149 38.1071ZM78.184 36.8164C78.5243 36.8164 78.8273 36.7665 79.0929 36.6669C78.956 36.0942 78.8232 35.6958 78.6945 35.4633C78.5658 35.2351 78.3749 35.1189 78.1176 35.1189C77.881 35.1189 77.6777 35.2019 77.5117 35.3679C77.3457 35.5339 77.1298 35.8742 76.8642 36.393L76.7729 36.5715C77.1962 36.7333 77.6652 36.8164 78.184 36.8164Z" fill="white"/>
<path id="Vector_58" d="M81.2051 38.1075C81.1179 38.1075 81.0474 38.037 80.9851 37.9C80.9229 37.7631 80.8896 37.5929 80.8896 37.3978C80.8896 37.2028 80.9229 37.0326 80.9851 36.8956C81.0474 36.7587 81.1221 36.6881 81.2051 36.6881H81.3918C82.9939 36.6881 84.1476 36.5885 84.8532 36.3934C84.874 36.215 84.8823 36.0531 84.8823 35.8996C84.5336 36.0116 84.1393 36.0656 83.6994 36.0656C82.5083 36.0656 81.9148 35.5302 81.9148 34.4594C81.9148 33.8078 82.1015 33.2558 82.4751 32.7993C82.8486 32.3427 83.3093 32.1145 83.8571 32.1145C84.4631 32.1145 84.957 32.405 85.3471 32.986C85.7331 33.5671 85.9281 34.3764 85.9281 35.4181C85.9281 36.2938 85.841 36.9703 85.6625 37.4476C84.8532 37.8876 83.4504 38.1075 81.4499 38.1075H81.2051ZM84.6083 31.6787L83.8198 31.0188L83.2097 31.7077L82.3796 31.0188L83.0686 30.2219L83.8571 30.9026L84.4672 30.1929L85.2973 30.9026L84.6083 31.6828V31.6787ZM84.1642 34.9906C84.4008 34.9906 84.6249 34.9657 84.8366 34.9201C84.7702 34.4054 84.6498 34.007 84.4755 33.7206C84.3012 33.4343 84.0771 33.2932 83.799 33.2932C83.521 33.2932 83.3134 33.3928 83.1723 33.5878C83.0312 33.787 82.9607 34.007 82.9607 34.2477C82.9607 34.7416 83.3632 34.9865 84.1642 34.9865V34.9906Z" fill="white"/>
<path id="Vector_59" d="M86.8288 40.1571C86.5259 40.1571 86.2187 40.1239 85.9116 40.0575L86.0195 38.883C86.1855 38.9079 86.3557 38.9203 86.5342 38.9203C87.1609 38.9203 87.6174 38.7253 87.9038 38.3393C88.1943 37.9533 88.3396 37.4802 88.3396 36.9199C88.3396 36.4467 88.2067 35.7287 87.937 34.77L89.1115 34.4131C89.124 34.4795 89.1489 34.5916 89.1904 34.7493C89.2319 34.907 89.2568 35.019 89.2734 35.0813C89.29 35.1435 89.3149 35.2348 89.3481 35.3511C89.3813 35.4673 89.4103 35.5627 89.4311 35.6333C89.456 35.7038 89.485 35.7785 89.5182 35.8657C89.5556 35.9529 89.593 36.0317 89.6303 36.1023C89.8212 36.4882 90.1989 36.6833 90.7633 36.6833H91.0082V38.1027H90.6513C90.1076 38.1027 89.6801 37.9699 89.3813 37.7084C89.2692 38.4513 88.9995 39.0448 88.5678 39.4889C88.1362 39.933 87.5552 40.153 86.8288 40.153V40.1571Z" fill="white"/>
<path id="Vector_60" d="M91.0083 38.1078C90.9211 38.1078 90.8506 38.0372 90.7883 37.9003C90.7261 37.7633 90.6929 37.5931 90.6929 37.3981C90.6929 37.203 90.7261 37.0329 90.7883 36.8959C90.8506 36.7589 90.9253 36.6884 91.0083 36.6884H91.0872C91.4731 36.6884 91.8301 36.651 92.1538 36.5805C92.1787 36.1654 92.1911 35.6342 92.1911 34.9826C92.1911 34.0405 92.1828 32.7373 92.1621 31.0688L93.4238 30.9609C93.4321 32.6916 93.4321 33.9616 93.4321 34.7792C93.4321 35.5304 93.4155 36.1115 93.3864 36.5307C93.3574 36.9499 93.291 37.3192 93.1831 37.6513C92.9548 37.7758 92.6394 37.8837 92.2368 37.975C91.8342 38.0663 91.4441 38.1119 91.0622 38.1119H91.0041L91.0083 38.1078Z" fill="white"/>
<path id="Vector_61" d="M96.3706 38.1078H95.1172V31.0688L96.3706 30.9609V38.1119V38.1078Z" fill="white"/>
</g>
</g>
<defs>
<linearGradient id="paint0_linear_49_1120" x1="123.879" y1="6.07824" x2="123.879" y2="34.7362" gradientUnits="userSpaceOnUse">
<stop stop-color="white"/>
<stop offset="0.24" stop-color="white"/>
<stop offset="0.48" stop-color="white"/>
<stop offset="1" stop-color="white"/>
</linearGradient>
<linearGradient id="paint1_linear_49_1120" x1="119.75" y1="6.07861" x2="119.75" y2="34.7366" gradientUnits="userSpaceOnUse">
<stop stop-color="white"/>
<stop offset="0.24" stop-color="white"/>
<stop offset="0.48" stop-color="white"/>
<stop offset="1" stop-color="white"/>
</linearGradient>
<linearGradient id="paint2_linear_49_1120" x1="125.128" y1="6.07817" x2="125.128" y2="34.7361" gradientUnits="userSpaceOnUse">
<stop stop-color="white"/>
<stop offset="0.24" stop-color="white"/>
<stop offset="0.48" stop-color="white"/>
<stop offset="1" stop-color="white"/>
</linearGradient>
<linearGradient id="paint3_linear_49_1120" x1="118.048" y1="6.07834" x2="118.048" y2="34.7363" gradientUnits="userSpaceOnUse">
<stop stop-color="white"/>
<stop offset="0.27" stop-color="white"/>
<stop offset="0.48" stop-color="white"/>
<stop offset="1" stop-color="white"/>
</linearGradient>
<linearGradient id="paint4_linear_49_1120" x1="110.971" y1="6.07857" x2="110.971" y2="34.7365" gradientUnits="userSpaceOnUse">
<stop stop-color="white"/>
<stop offset="0.24" stop-color="white"/>
<stop offset="0.48" stop-color="white"/>
<stop offset="1" stop-color="white"/>
</linearGradient>
<linearGradient id="paint5_linear_49_1120" x1="116.346" y1="6.07829" x2="116.346" y2="34.7362" gradientUnits="userSpaceOnUse">
<stop stop-color="white"/>
<stop offset="0.24" stop-color="white"/>
<stop offset="0.48" stop-color="white"/>
<stop offset="1" stop-color="white"/>
</linearGradient>
<linearGradient id="paint6_linear_49_1120" x1="112.217" y1="6.07829" x2="112.217" y2="34.7362" gradientUnits="userSpaceOnUse">
<stop stop-color="white"/>
<stop offset="0.24" stop-color="white"/>
<stop offset="0.48" stop-color="white"/>
<stop offset="1" stop-color="white"/>
</linearGradient>
</defs>
</svg>
